# xmcd
#
# Track frame offsets:
#	150
#	13963
#	25764
#	35277
#	46828
#	57418
#	69275
#	78682
#	89762
#	100197
#	111064
#	121799
#	134868
#	143538
#	157377
#	166340
#
# Disc length: 2358 seconds
#
# Revision: 0
# Processed by: cddbd v1.5.2PL0 Copyright (c) Steve Scherf et al.
# Submitted via: audiograbber 1.83.01
#
DISCID=dc093410
DTITLE=Sampler - The Best Of Country And West - Volume One
DYEAR=1968
DGENRE=Country
TTITLE0=Charley Pride  - Detroit City
TTITLE1=Porter Wagoner And Dolly Parton  - The Last Thing On My Mind
TTITLE2=Hank Snow  - Learnin' A New Way Of Life
TTITLE3=Connie Smith  - In My Baby's Arms Again
TTITLE4=Waylon Jennings  - Walk On Out Of My Mind
TTITLE5=George Hamilton IV  - Steel Rail Blues
TTITLE6=Norma Jean   - Heaven Help The Working Girl
TTITLE7=Justin Tubb  - I'm Going Back To Louisiana
TTITLE8=Carl Belew  - Home Away From Home
TTITLE9=Norma Jean  - You're Driving Me Out Of My Mind
TTITLE10=Bobby Bare  - The Piney Wood Hills
TTITLE11=Floyd Cramer  - By The Time I Get To Phoenix
TTITLE12=Vernon Oxford  - That's The Way I Talk
TTITLE13=Dottie West  - Childhood Places
TTITLE14=Jim Ed Brown  - The Cajun Stripper
TTITLE15=Porter Wagoner  - Green, Green Grass Of Home
EXTD=
EXTT0=
EXTT1=
EXTT2=
EXTT3=
EXTT4=
EXTT5=
EXTT6=
EXTT7=
EXTT8=
EXTT9=
EXTT10=
EXTT11=
EXTT12=
EXTT13=
EXTT14=
EXTT15=
PLAYORDER=
